<?xml version="1.0" encoding="UTF-8" standalone="no"?>
<!DOCTYPE svg PUBLIC "-//W3C//DTD SVG 1.1//EN"
 "http://www.w3.org/Graphics/SVG/1.1/DTD/svg11.dtd">
<!-- Generated by graphviz version 2.40.1 (20161225.0304)
 -->
<!-- Title: Tree Pages: 1 -->
<svg width="1078pt" height="997pt"
 viewBox="0.00 0.00 1078.00 997.00" xmlns="http://www.w3.org/2000/svg" xmlns:xlink="http://www.w3.org/1999/xlink">
<g id="graph0" class="graph" transform="scale(1 1) rotate(0) translate(4 993)">
<title>Tree</title>
<polygon fill="#ffffff" stroke="transparent" points="-4,4 -4,-993 1074,-993 1074,4 -4,4"/>
<!-- 0 -->
<g id="node1" class="node">
<title>0</title>
<polygon fill="none" stroke="#000000" points="505.5,-989 389.5,-989 389.5,-921 505.5,-921 505.5,-989"/>
<text text-anchor="middle" x="447.5" y="-973.8" font-family="Helvetica,sans-Serif" font-size="14.00" fill="#000000">X[0] &lt;= 7.306</text>
<text text-anchor="middle" x="447.5" y="-958.8" font-family="Helvetica,sans-Serif" font-size="14.00" fill="#000000">gini = 0.481</text>
<text text-anchor="middle" x="447.5" y="-943.8" font-family="Helvetica,sans-Serif" font-size="14.00" fill="#000000">samples = 72</text>
<text text-anchor="middle" x="447.5" y="-928.8" font-family="Helvetica,sans-Serif" font-size="14.00" fill="#000000">value = [29, 43]</text>
</g>
<!-- 1 -->
<g id="node2" class="node">
<title>1</title>
<polygon fill="none" stroke="#000000" points="434,-877.5 335,-877.5 335,-824.5 434,-824.5 434,-877.5"/>
<text text-anchor="middle" x="384.5" y="-862.3" font-family="Helvetica,sans-Serif" font-size="14.00" fill="#000000">gini = 0.0</text>
<text text-anchor="middle" x="384.5" y="-847.3" font-family="Helvetica,sans-Serif" font-size="14.00" fill="#000000">samples = 4</text>
<text text-anchor="middle" x="384.5" y="-832.3" font-family="Helvetica,sans-Serif" font-size="14.00" fill="#000000">value = [4, 0]</text>
</g>
<!-- 0&#45;&gt;1 -->
<g id="edge1" class="edge">
<title>0&#45;&gt;1</title>
<path fill="none" stroke="#000000" d="M426.8714,-920.9465C420.1322,-909.8215 412.6363,-897.4473 405.8455,-886.237"/>
<polygon fill="#000000" stroke="#000000" points="408.7533,-884.2818 400.5784,-877.5422 402.7661,-887.9087 408.7533,-884.2818"/>
<text text-anchor="middle" x="394.6177" y="-898.1212" font-family="Helvetica,sans-Serif" font-size="14.00" fill="#000000">True</text>
</g>
<!-- 2 -->
<g id="node3" class="node">
<title>2</title>
<polygon fill="none" stroke="#000000" points="568.5,-885 452.5,-885 452.5,-817 568.5,-817 568.5,-885"/>
<text text-anchor="middle" x="510.5" y="-869.8" font-family="Helvetica,sans-Serif" font-size="14.00" fill="#000000">X[0] &lt;= 15.017</text>
<text text-anchor="middle" x="510.5" y="-854.8" font-family="Helvetica,sans-Serif" font-size="14.00" fill="#000000">gini = 0.465</text>
<text text-anchor="middle" x="510.5" y="-839.8" font-family="Helvetica,sans-Serif" font-size="14.00" fill="#000000">samples = 68</text>
<text text-anchor="middle" x="510.5" y="-824.8" font-family="Helvetica,sans-Serif" font-size="14.00" fill="#000000">value = [25, 43]</text>
</g>
<!-- 0&#45;&gt;2 -->
<g id="edge2" class="edge">
<title>0&#45;&gt;2</title>
<path fill="none" stroke="#000000" d="M468.1286,-920.9465C473.3499,-912.3271 479.0255,-902.9579 484.4755,-893.9611"/>
<polygon fill="#000000" stroke="#000000" points="487.6374,-895.4965 489.8251,-885.13 481.6503,-891.8697 487.6374,-895.4965"/>
<text text-anchor="middle" x="495.7858" y="-905.709" font-family="Helvetica,sans-Serif" font-size="14.00" fill="#000000">False</text>
</g>
<!-- 3 -->
<g id="node4" class="node">
<title>3</title>
<polygon fill="none" stroke="#000000" points="499,-781 392,-781 392,-713 499,-713 499,-781"/>
<text text-anchor="middle" x="445.5" y="-765.8" font-family="Helvetica,sans-Serif" font-size="14.00" fill="#000000">X[1] &lt;= 9.757</text>
<text text-anchor="middle" x="445.5" y="-750.8" font-family="Helvetica,sans-Serif" font-size="14.00" fill="#000000">gini = 0.308</text>
<text text-anchor="middle" x="445.5" y="-735.8" font-family="Helvetica,sans-Serif" font-size="14.00" fill="#000000">samples = 21</text>
<text text-anchor="middle" x="445.5" y="-720.8" font-family="Helvetica,sans-Serif" font-size="14.00" fill="#000000">value = [4, 17]</text>
</g>
<!-- 2&#45;&gt;3 -->
<g id="edge3" class="edge">
<title>2&#45;&gt;3</title>
<path fill="none" stroke="#000000" d="M489.2166,-816.9465C483.7733,-808.2373 477.8516,-798.7626 472.175,-789.6801"/>
<polygon fill="#000000" stroke="#000000" points="475.0993,-787.755 466.8312,-781.13 469.1633,-791.465 475.0993,-787.755"/>
</g>
<!-- 16 -->
<g id="node17" class="node">
<title>16</title>
<polygon fill="none" stroke="#000000" points="633.5,-781 517.5,-781 517.5,-713 633.5,-713 633.5,-781"/>
<text text-anchor="middle" x="575.5" y="-765.8" font-family="Helvetica,sans-Serif" font-size="14.00" fill="#000000">X[0] &lt;= 16.565</text>
<text text-anchor="middle" x="575.5" y="-750.8" font-family="Helvetica,sans-Serif" font-size="14.00" fill="#000000">gini = 0.494</text>
<text text-anchor="middle" x="575.5" y="-735.8" font-family="Helvetica,sans-Serif" font-size="14.00" fill="#000000">samples = 47</text>
<text text-anchor="middle" x="575.5" y="-720.8" font-family="Helvetica,sans-Serif" font-size="14.00" fill="#000000">value = [21, 26]</text>
</g>
<!-- 2&#45;&gt;16 -->
<g id="edge16" class="edge">
<title>2&#45;&gt;16</title>
<path fill="none" stroke="#000000" d="M531.7834,-816.9465C537.2267,-808.2373 543.1484,-798.7626 548.825,-789.6801"/>
<polygon fill="#000000" stroke="#000000" points="551.8367,-791.465 554.1688,-781.13 545.9007,-787.755 551.8367,-791.465"/>
</g>
<!-- 4 -->
<g id="node5" class="node">
<title>4</title>
<polygon fill="none" stroke="#000000" points="381,-677 274,-677 274,-609 381,-609 381,-677"/>
<text text-anchor="middle" x="327.5" y="-661.8" font-family="Helvetica,sans-Serif" font-size="14.00" fill="#000000">X[0] &lt;= 7.933</text>
<text text-anchor="middle" x="327.5" y="-646.8" font-family="Helvetica,sans-Serif" font-size="14.00" fill="#000000">gini = 0.375</text>
<text text-anchor="middle" x="327.5" y="-631.8" font-family="Helvetica,sans-Serif" font-size="14.00" fill="#000000">samples = 16</text>
<text text-anchor="middle" x="327.5" y="-616.8" font-family="Helvetica,sans-Serif" font-size="14.00" fill="#000000">value = [4, 12]</text>
</g>
<!-- 3&#45;&gt;4 -->
<g id="edge4" class="edge">
<title>3&#45;&gt;4</title>
<path fill="none" stroke="#000000" d="M406.8624,-712.9465C396.3696,-703.6986 384.8974,-693.5876 374.0186,-683.9994"/>
<polygon fill="#000000" stroke="#000000" points="376.0407,-681.1163 366.2244,-677.13 371.4123,-686.3678 376.0407,-681.1163"/>
</g>
<!-- 15 -->
<g id="node16" class="node">
<title>15</title>
<polygon fill="none" stroke="#000000" points="498,-669.5 399,-669.5 399,-616.5 498,-616.5 498,-669.5"/>
<text text-anchor="middle" x="448.5" y="-654.3" font-family="Helvetica,sans-Serif" font-size="14.00" fill="#000000">gini = 0.0</text>
<text text-anchor="middle" x="448.5" y="-639.3" font-family="Helvetica,sans-Serif" font-size="14.00" fill="#000000">samples = 5</text>
<text text-anchor="middle" x="448.5" y="-624.3" font-family="Helvetica,sans-Serif" font-size="14.00" fill="#000000">value = [0, 5]</text>
</g>
<!-- 3&#45;&gt;15 -->
<g id="edge15" class="edge">
<title>3&#45;&gt;15</title>
<path fill="none" stroke="#000000" d="M446.4823,-712.9465C446.7905,-702.2621 447.132,-690.4254 447.445,-679.5742"/>
<polygon fill="#000000" stroke="#000000" points="450.9445,-679.639 447.7344,-669.5422 443.9474,-679.4371 450.9445,-679.639"/>
</g>
<!-- 5 -->
<g id="node6" class="node">
<title>5</title>
<polygon fill="none" stroke="#000000" points="257,-565.5 158,-565.5 158,-512.5 257,-512.5 257,-565.5"/>
<text text-anchor="middle" x="207.5" y="-550.3" font-family="Helvetica,sans-Serif" font-size="14.00" fill="#000000">gini = 0.0</text>
<text text-anchor="middle" x="207.5" y="-535.3" font-family="Helvetica,sans-Serif" font-size="14.00" fill="#000000">samples = 1</text>
<text text-anchor="middle" x="207.5" y="-520.3" font-family="Helvetica,sans-Serif" font-size="14.00" fill="#000000">value = [1, 0]</text>
</g>
<!-- 4&#45;&gt;5 -->
<g id="edge5" class="edge">
<title>4&#45;&gt;5</title>
<path fill="none" stroke="#000000" d="M288.2075,-608.9465C274.6083,-597.1606 259.3915,-583.9726 245.8676,-572.2519"/>
<polygon fill="#000000" stroke="#000000" points="247.9748,-569.4466 238.1256,-565.5422 243.3902,-574.7364 247.9748,-569.4466"/>
</g>
<!-- 6 -->
<g id="node7" class="node">
<title>6</title>
<polygon fill="none" stroke="#000000" points="382,-573 275,-573 275,-505 382,-505 382,-573"/>
<text text-anchor="middle" x="328.5" y="-557.8" font-family="Helvetica,sans-Serif" font-size="14.00" fill="#000000">X[1] &lt;= 9.552</text>
<text text-anchor="middle" x="328.5" y="-542.8" font-family="Helvetica,sans-Serif" font-size="14.00" fill="#000000">gini = 0.32</text>
<text text-anchor="middle" x="328.5" y="-527.8" font-family="Helvetica,sans-Serif" font-size="14.00" fill="#000000">samples = 15</text>
<text text-anchor="middle" x="328.5" y="-512.8" font-family="Helvetica,sans-Serif" font-size="14.00" fill="#000000">value = [3, 12]</text>
</g>
<!-- 4&#45;&gt;6 -->
<g id="edge6" class="edge">
<title>4&#45;&gt;6</title>
<path fill="none" stroke="#000000" d="M327.8274,-608.9465C327.906,-600.776 327.991,-591.9318 328.0734,-583.3697"/>
<polygon fill="#000000" stroke="#000000" points="331.5754,-583.1632 328.1718,-573.13 324.5757,-583.0958 331.5754,-583.1632"/>
</g>
<!-- 7 -->
<g id="node8" class="node">
<title>7</title>
<polygon fill="none" stroke="#000000" points="326,-469 219,-469 219,-401 326,-401 326,-469"/>
<text text-anchor="middle" x="272.5" y="-453.8" font-family="Helvetica,sans-Serif" font-size="14.00" fill="#000000">X[1] &lt;= 5.454</text>
<text text-anchor="middle" x="272.5" y="-438.8" font-family="Helvetica,sans-Serif" font-size="14.00" fill="#000000">gini = 0.245</text>
<text text-anchor="middle" x="272.5" y="-423.8" font-family="Helvetica,sans-Serif" font-size="14.00" fill="#000000">samples = 14</text>
<text text-anchor="middle" x="272.5" y="-408.8" font-family="Helvetica,sans-Serif" font-size="14.00" fill="#000000">value = [2, 12]</text>
</g>
<!-- 6&#45;&gt;7 -->
<g id="edge7" class="edge">
<title>6&#45;&gt;7</title>
<path fill="none" stroke="#000000" d="M310.1635,-504.9465C305.5223,-496.3271 300.4773,-486.9579 295.6329,-477.9611"/>
<polygon fill="#000000" stroke="#000000" points="298.7004,-476.2754 290.8777,-469.13 292.5371,-479.5941 298.7004,-476.2754"/>
</g>
<!-- 14 -->
<g id="node15" class="node">
<title>14</title>
<polygon fill="none" stroke="#000000" points="443,-461.5 344,-461.5 344,-408.5 443,-408.5 443,-461.5"/>
<text text-anchor="middle" x="393.5" y="-446.3" font-family="Helvetica,sans-Serif" font-size="14.00" fill="#000000">gini = 0.0</text>
<text text-anchor="middle" x="393.5" y="-431.3" font-family="Helvetica,sans-Serif" font-size="14.00" fill="#000000">samples = 1</text>
<text text-anchor="middle" x="393.5" y="-416.3" font-family="Helvetica,sans-Serif" font-size="14.00" fill="#000000">value = [1, 0]</text>
</g>
<!-- 6&#45;&gt;14 -->
<g id="edge14" class="edge">
<title>6&#45;&gt;14</title>
<path fill="none" stroke="#000000" d="M349.7834,-504.9465C356.7366,-493.8215 364.4705,-481.4473 371.4769,-470.237"/>
<polygon fill="#000000" stroke="#000000" points="374.5791,-471.8772 376.9111,-461.5422 368.6431,-468.1671 374.5791,-471.8772"/>
</g>
<!-- 8 -->
<g id="node9" class="node">
<title>8</title>
<polygon fill="none" stroke="#000000" points="209,-365 106,-365 106,-297 209,-297 209,-365"/>
<text text-anchor="middle" x="157.5" y="-349.8" font-family="Helvetica,sans-Serif" font-size="14.00" fill="#000000">X[1] &lt;= 4.919</text>
<text text-anchor="middle" x="157.5" y="-334.8" font-family="Helvetica,sans-Serif" font-size="14.00" fill="#000000">gini = 0.444</text>
<text text-anchor="middle" x="157.5" y="-319.8" font-family="Helvetica,sans-Serif" font-size="14.00" fill="#000000">samples = 6</text>
<text text-anchor="middle" x="157.5" y="-304.8" font-family="Helvetica,sans-Serif" font-size="14.00" fill="#000000">value = [2, 4]</text>
</g>
<!-- 7&#45;&gt;8 -->
<g id="edge8" class="edge">
<title>7&#45;&gt;8</title>
<path fill="none" stroke="#000000" d="M234.8447,-400.9465C224.6187,-391.6986 213.4382,-381.5876 202.8359,-371.9994"/>
<polygon fill="#000000" stroke="#000000" points="205.0044,-369.2416 195.2399,-365.13 200.3092,-374.4334 205.0044,-369.2416"/>
</g>
<!-- 13 -->
<g id="node14" class="node">
<title>13</title>
<polygon fill="none" stroke="#000000" points="326,-357.5 227,-357.5 227,-304.5 326,-304.5 326,-357.5"/>
<text text-anchor="middle" x="276.5" y="-342.3" font-family="Helvetica,sans-Serif" font-size="14.00" fill="#000000">gini = 0.0</text>
<text text-anchor="middle" x="276.5" y="-327.3" font-family="Helvetica,sans-Serif" font-size="14.00" fill="#000000">samples = 8</text>
<text text-anchor="middle" x="276.5" y="-312.3" font-family="Helvetica,sans-Serif" font-size="14.00" fill="#000000">value = [0, 8]</text>
</g>
<!-- 7&#45;&gt;13 -->
<g id="edge13" class="edge">
<title>7&#45;&gt;13</title>
<path fill="none" stroke="#000000" d="M273.8097,-400.9465C274.2207,-390.2621 274.6759,-378.4254 275.0933,-367.5742"/>
<polygon fill="#000000" stroke="#000000" points="278.5921,-367.6693 275.4791,-357.5422 271.5973,-367.4002 278.5921,-367.6693"/>
</g>
<!-- 9 -->
<g id="node10" class="node">
<title>9</title>
<polygon fill="none" stroke="#000000" points="99,-253.5 0,-253.5 0,-200.5 99,-200.5 99,-253.5"/>
<text text-anchor="middle" x="49.5" y="-238.3" font-family="Helvetica,sans-Serif" font-size="14.00" fill="#000000">gini = 0.0</text>
<text text-anchor="middle" x="49.5" y="-223.3" font-family="Helvetica,sans-Serif" font-size="14.00" fill="#000000">samples = 3</text>
<text text-anchor="middle" x="49.5" y="-208.3" font-family="Helvetica,sans-Serif" font-size="14.00" fill="#000000">value = [0, 3]</text>
</g>
<!-- 8&#45;&gt;9 -->
<g id="edge9" class="edge">
<title>8&#45;&gt;9</title>
<path fill="none" stroke="#000000" d="M122.1368,-296.9465C110.0119,-285.2707 96.4582,-272.219 84.3725,-260.5809"/>
<polygon fill="#000000" stroke="#000000" points="86.694,-257.9575 77.063,-253.5422 81.8385,-262.9997 86.694,-257.9575"/>
</g>
<!-- 10 -->
<g id="node11" class="node">
<title>10</title>
<polygon fill="none" stroke="#000000" points="228,-261 117,-261 117,-193 228,-193 228,-261"/>
<text text-anchor="middle" x="172.5" y="-245.8" font-family="Helvetica,sans-Serif" font-size="14.00" fill="#000000">X[0] &lt;= 12.515</text>
<text text-anchor="middle" x="172.5" y="-230.8" font-family="Helvetica,sans-Serif" font-size="14.00" fill="#000000">gini = 0.444</text>
<text text-anchor="middle" x="172.5" y="-215.8" font-family="Helvetica,sans-Serif" font-size="14.00" fill="#000000">samples = 3</text>
<text text-anchor="middle" x="172.5" y="-200.8" font-family="Helvetica,sans-Serif" font-size="14.00" fill="#000000">value = [2, 1]</text>
</g>
<!-- 8&#45;&gt;10 -->
<g id="edge10" class="edge">
<title>8&#45;&gt;10</title>
<path fill="none" stroke="#000000" d="M162.4116,-296.9465C163.6029,-288.6863 164.8937,-279.7374 166.1412,-271.0875"/>
<polygon fill="#000000" stroke="#000000" points="169.6139,-271.5272 167.5774,-261.13 162.6856,-270.5279 169.6139,-271.5272"/>
</g>
<!-- 11 -->
<g id="node12" class="node">
<title>11</title>
<polygon fill="none" stroke="#000000" points="168,-149.5 69,-149.5 69,-96.5 168,-96.5 168,-149.5"/>
<text text-anchor="middle" x="118.5" y="-134.3" font-family="Helvetica,sans-Serif" font-size="14.00" fill="#000000">gini = 0.0</text>
<text text-anchor="middle" x="118.5" y="-119.3" font-family="Helvetica,sans-Serif" font-size="14.00" fill="#000000">samples = 2</text>
<text text-anchor="middle" x="118.5" y="-104.3" font-family="Helvetica,sans-Serif" font-size="14.00" fill="#000000">value = [2, 0]</text>
</g>
<!-- 10&#45;&gt;11 -->
<g id="edge11" class="edge">
<title>10&#45;&gt;11</title>
<path fill="none" stroke="#000000" d="M154.8184,-192.9465C149.0991,-181.9316 142.744,-169.6922 136.9692,-158.5703"/>
<polygon fill="#000000" stroke="#000000" points="139.996,-156.8043 132.2815,-149.5422 133.7835,-160.03 139.996,-156.8043"/>
</g>
<!-- 12 -->
<g id="node13" class="node">
<title>12</title>
<polygon fill="none" stroke="#000000" points="285,-149.5 186,-149.5 186,-96.5 285,-96.5 285,-149.5"/>
<text text-anchor="middle" x="235.5" y="-134.3" font-family="Helvetica,sans-Serif" font-size="14.00" fill="#000000">gini = 0.0</text>
<text text-anchor="middle" x="235.5" y="-119.3" font-family="Helvetica,sans-Serif" font-size="14.00" fill="#000000">samples = 1</text>
<text text-anchor="middle" x="235.5" y="-104.3" font-family="Helvetica,sans-Serif" font-size="14.00" fill="#000000">value = [0, 1]</text>
</g>
<!-- 10&#45;&gt;12 -->
<g id="edge12" class="edge">
<title>10&#45;&gt;12</title>
<path fill="none" stroke="#000000" d="M193.1286,-192.9465C199.8678,-181.8215 207.3637,-169.4473 214.1545,-158.237"/>
<polygon fill="#000000" stroke="#000000" points="217.2339,-159.9087 219.4216,-149.5422 211.2467,-156.2818 217.2339,-159.9087"/>
</g>
<!-- 17 -->
<g id="node18" class="node">
<title>17</title>
<polygon fill="none" stroke="#000000" points="620,-669.5 521,-669.5 521,-616.5 620,-616.5 620,-669.5"/>
<text text-anchor="middle" x="570.5" y="-654.3" font-family="Helvetica,sans-Serif" font-size="14.00" fill="#000000">gini = 0.0</text>
<text text-anchor="middle" x="570.5" y="-639.3" font-family="Helvetica,sans-Serif" font-size="14.00" fill="#000000">samples = 3</text>
<text text-anchor="middle" x="570.5" y="-624.3" font-family="Helvetica,sans-Serif" font-size="14.00" fill="#000000">value = [3, 0]</text>
</g>
<!-- 16&#45;&gt;17 -->
<g id="edge17" class="edge">
<title>16&#45;&gt;17</title>
<path fill="none" stroke="#000000" d="M573.8628,-712.9465C573.3491,-702.2621 572.7801,-690.4254 572.2584,-679.5742"/>
<polygon fill="#000000" stroke="#000000" points="575.7523,-679.3625 571.7761,-669.5422 568.7604,-679.6987 575.7523,-679.3625"/>
</g>
<!-- 18 -->
<g id="node19" class="node">
<title>18</title>
<polygon fill="none" stroke="#000000" points="754.5,-677 638.5,-677 638.5,-609 754.5,-609 754.5,-677"/>
<text text-anchor="middle" x="696.5" y="-661.8" font-family="Helvetica,sans-Serif" font-size="14.00" fill="#000000">X[1] &lt;= 9.635</text>
<text text-anchor="middle" x="696.5" y="-646.8" font-family="Helvetica,sans-Serif" font-size="14.00" fill="#000000">gini = 0.483</text>
<text text-anchor="middle" x="696.5" y="-631.8" font-family="Helvetica,sans-Serif" font-size="14.00" fill="#000000">samples = 44</text>
<text text-anchor="middle" x="696.5" y="-616.8" font-family="Helvetica,sans-Serif" font-size="14.00" fill="#000000">value = [18, 26]</text>
</g>
<!-- 16&#45;&gt;18 -->
<g id="edge18" class="edge">
<title>16&#45;&gt;18</title>
<path fill="none" stroke="#000000" d="M615.1199,-712.9465C625.984,-703.6088 637.8718,-693.3911 649.1235,-683.7203"/>
<polygon fill="#000000" stroke="#000000" points="651.4887,-686.3026 656.7911,-677.13 646.9259,-680.994 651.4887,-686.3026"/>
</g>
<!-- 19 -->
<g id="node20" class="node">
<title>19</title>
<polygon fill="none" stroke="#000000" points="728.5,-573 612.5,-573 612.5,-505 728.5,-505 728.5,-573"/>
<text text-anchor="middle" x="670.5" y="-557.8" font-family="Helvetica,sans-Serif" font-size="14.00" fill="#000000">X[1] &lt;= 6.721</text>
<text text-anchor="middle" x="670.5" y="-542.8" font-family="Helvetica,sans-Serif" font-size="14.00" fill="#000000">gini = 0.497</text>
<text text-anchor="middle" x="670.5" y="-527.8" font-family="Helvetica,sans-Serif" font-size="14.00" fill="#000000">samples = 28</text>
<text text-anchor="middle" x="670.5" y="-512.8" font-family="Helvetica,sans-Serif" font-size="14.00" fill="#000000">value = [15, 13]</text>
</g>
<!-- 18&#45;&gt;19 -->
<g id="edge19" class="edge">
<title>18&#45;&gt;19</title>
<path fill="none" stroke="#000000" d="M687.9866,-608.9465C685.9216,-600.6863 683.6843,-591.7374 681.5219,-583.0875"/>
<polygon fill="#000000" stroke="#000000" points="684.8534,-581.9825 679.0325,-573.13 678.0624,-583.6803 684.8534,-581.9825"/>
</g>
<!-- 38 -->
<g id="node39" class="node">
<title>38</title>
<polygon fill="none" stroke="#000000" points="945,-573 834,-573 834,-505 945,-505 945,-573"/>
<text text-anchor="middle" x="889.5" y="-557.8" font-family="Helvetica,sans-Serif" font-size="14.00" fill="#000000">X[1] &lt;= 22.001</text>
<text text-anchor="middle" x="889.5" y="-542.8" font-family="Helvetica,sans-Serif" font-size="14.00" fill="#000000">gini = 0.305</text>
<text text-anchor="middle" x="889.5" y="-527.8" font-family="Helvetica,sans-Serif" font-size="14.00" fill="#000000">samples = 16</text>
<text text-anchor="middle" x="889.5" y="-512.8" font-family="Helvetica,sans-Serif" font-size="14.00" fill="#000000">value = [3, 13]</text>
</g>
<!-- 18&#45;&gt;38 -->
<g id="edge38" class="edge">
<title>18&#45;&gt;38</title>
<path fill="none" stroke="#000000" d="M754.6681,-611.6555C776.8126,-599.7228 802.1727,-586.0572 824.8798,-573.8212"/>
<polygon fill="#000000" stroke="#000000" points="826.6255,-576.8564 833.7685,-569.0315 823.3049,-570.6941 826.6255,-576.8564"/>
</g>
<!-- 20 -->
<g id="node21" class="node">
<title>20</title>
<polygon fill="none" stroke="#000000" points="574,-469 467,-469 467,-401 574,-401 574,-469"/>
<text text-anchor="middle" x="520.5" y="-453.8" font-family="Helvetica,sans-Serif" font-size="14.00" fill="#000000">X[1] &lt;= 5.229</text>
<text text-anchor="middle" x="520.5" y="-438.8" font-family="Helvetica,sans-Serif" font-size="14.00" fill="#000000">gini = 0.488</text>
<text text-anchor="middle" x="520.5" y="-423.8" font-family="Helvetica,sans-Serif" font-size="14.00" fill="#000000">samples = 19</text>
<text text-anchor="middle" x="520.5" y="-408.8" font-family="Helvetica,sans-Serif" font-size="14.00" fill="#000000">value = [8, 11]</text>
</g>
<!-- 19&#45;&gt;20 -->
<g id="edge20" class="edge">
<title>19&#45;&gt;20</title>
<path fill="none" stroke="#000000" d="M621.3844,-504.9465C607.5281,-495.3395 592.3283,-484.8009 578.0261,-474.8848"/>
<polygon fill="#000000" stroke="#000000" points="579.9382,-471.9515 569.726,-469.13 575.9497,-477.7041 579.9382,-471.9515"/>
</g>
<!-- 31 -->
<g id="node32" class="node">
<title>31</title>
<polygon fill="none" stroke="#000000" points="722,-469 619,-469 619,-401 722,-401 722,-469"/>
<text text-anchor="middle" x="670.5" y="-453.8" font-family="Helvetica,sans-Serif" font-size="14.00" fill="#000000">X[0] &lt;= 23.72</text>
<text text-anchor="middle" x="670.5" y="-438.8" font-family="Helvetica,sans-Serif" font-size="14.00" fill="#000000">gini = 0.346</text>
<text text-anchor="middle" x="670.5" y="-423.8" font-family="Helvetica,sans-Serif" font-size="14.00" fill="#000000">samples = 9</text>
<text text-anchor="middle" x="670.5" y="-408.8" font-family="Helvetica,sans-Serif" font-size="14.00" fill="#000000">value = [7, 2]</text>
</g>
<!-- 19&#45;&gt;31 -->
<g id="edge31" class="edge">
<title>19&#45;&gt;31</title>
<path fill="none" stroke="#000000" d="M670.5,-504.9465C670.5,-496.776 670.5,-487.9318 670.5,-479.3697"/>
<polygon fill="#000000" stroke="#000000" points="674.0001,-479.13 670.5,-469.13 667.0001,-479.13 674.0001,-479.13"/>
</g>
<!-- 21 -->
<g id="node22" class="node">
<title>21</title>
<polygon fill="none" stroke="#000000" points="452.5,-365 348.5,-365 348.5,-297 452.5,-297 452.5,-365"/>
<text text-anchor="middle" x="400.5" y="-349.8" font-family="Helvetica,sans-Serif" font-size="14.00" fill="#000000">X[1] &lt;= 4.456</text>
<text text-anchor="middle" x="400.5" y="-334.8" font-family="Helvetica,sans-Serif" font-size="14.00" fill="#000000">gini = 0.498</text>
<text text-anchor="middle" x="400.5" y="-319.8" font-family="Helvetica,sans-Serif" font-size="14.00" fill="#000000">samples = 15</text>
<text text-anchor="middle" x="400.5" y="-304.8" font-family="Helvetica,sans-Serif" font-size="14.00" fill="#000000">value = [8, 7]</text>
</g>
<!-- 20&#45;&gt;21 -->
<g id="edge21" class="edge">
<title>20&#45;&gt;21</title>
<path fill="none" stroke="#000000" d="M481.2075,-400.9465C470.4333,-391.6088 458.6436,-381.3911 447.485,-371.7203"/>
<polygon fill="#000000" stroke="#000000" points="449.7299,-369.0344 439.8808,-365.13 445.1454,-374.3243 449.7299,-369.0344"/>
</g>
<!-- 30 -->
<g id="node31" class="node">
<title>30</title>
<polygon fill="none" stroke="#000000" points="570,-357.5 471,-357.5 471,-304.5 570,-304.5 570,-357.5"/>
<text text-anchor="middle" x="520.5" y="-342.3" font-family="Helvetica,sans-Serif" font-size="14.00" fill="#000000">gini = 0.0</text>
<text text-anchor="middle" x="520.5" y="-327.3" font-family="Helvetica,sans-Serif" font-size="14.00" fill="#000000">samples = 4</text>
<text text-anchor="middle" x="520.5" y="-312.3" font-family="Helvetica,sans-Serif" font-size="14.00" fill="#000000">value = [0, 4]</text>
</g>
<!-- 20&#45;&gt;30 -->
<g id="edge30" class="edge">
<title>20&#45;&gt;30</title>
<path fill="none" stroke="#000000" d="M520.5,-400.9465C520.5,-390.2621 520.5,-378.4254 520.5,-367.5742"/>
<polygon fill="#000000" stroke="#000000" points="524.0001,-367.5421 520.5,-357.5422 517.0001,-367.5422 524.0001,-367.5421"/>
</g>
<!-- 22 -->
<g id="node23" class="node">
<title>22</title>
<polygon fill="none" stroke="#000000" points="426,-261 315,-261 315,-193 426,-193 426,-261"/>
<text text-anchor="middle" x="370.5" y="-245.8" font-family="Helvetica,sans-Serif" font-size="14.00" fill="#000000">X[0] &lt;= 25.554</text>
<text text-anchor="middle" x="370.5" y="-230.8" font-family="Helvetica,sans-Serif" font-size="14.00" fill="#000000">gini = 0.463</text>
<text text-anchor="middle" x="370.5" y="-215.8" font-family="Helvetica,sans-Serif" font-size="14.00" fill="#000000">samples = 11</text>
<text text-anchor="middle" x="370.5" y="-200.8" font-family="Helvetica,sans-Serif" font-size="14.00" fill="#000000">value = [4, 7]</text>
</g>
<!-- 21&#45;&gt;22 -->
<g id="edge22" class="edge">
<title>21&#45;&gt;22</title>
<path fill="none" stroke="#000000" d="M390.6769,-296.9465C388.2682,-288.5965 385.6566,-279.5427 383.1362,-270.8056"/>
<polygon fill="#000000" stroke="#000000" points="386.4798,-269.7681 380.3452,-261.13 379.754,-271.7083 386.4798,-269.7681"/>
</g>
<!-- 29 -->
<g id="node30" class="node">
<title>29</title>
<polygon fill="none" stroke="#000000" points="543,-253.5 444,-253.5 444,-200.5 543,-200.5 543,-253.5"/>
<text text-anchor="middle" x="493.5" y="-238.3" font-family="Helvetica,sans-Serif" font-size="14.00" fill="#000000">gini = 0.0</text>
<text text-anchor="middle" x="493.5" y="-223.3" font-family="Helvetica,sans-Serif" font-size="14.00" fill="#000000">samples = 4</text>
<text text-anchor="middle" x="493.5" y="-208.3" font-family="Helvetica,sans-Serif" font-size="14.00" fill="#000000">value = [4, 0]</text>
</g>
<!-- 21&#45;&gt;29 -->
<g id="edge29" class="edge">
<title>21&#45;&gt;29</title>
<path fill="none" stroke="#000000" d="M430.9517,-296.9465C441.1955,-285.491 452.6238,-272.711 462.8805,-261.2412"/>
<polygon fill="#000000" stroke="#000000" points="465.7083,-263.3295 469.7652,-253.5422 460.4903,-258.6634 465.7083,-263.3295"/>
</g>
<!-- 23 -->
<g id="node24" class="node">
<title>23</title>
<polygon fill="none" stroke="#000000" points="407,-157 304,-157 304,-89 407,-89 407,-157"/>
<text text-anchor="middle" x="355.5" y="-141.8" font-family="Helvetica,sans-Serif" font-size="14.00" fill="#000000">X[1] &lt;= 3.743</text>
<text text-anchor="middle" x="355.5" y="-126.8" font-family="Helvetica,sans-Serif" font-size="14.00" fill="#000000">gini = 0.375</text>
<text text-anchor="middle" x="355.5" y="-111.8" font-family="Helvetica,sans-Serif" font-size="14.00" fill="#000000">samples = 4</text>
<text text-anchor="middle" x="355.5" y="-96.8" font-family="Helvetica,sans-Serif" font-size="14.00" fill="#000000">value = [3, 1]</text>
</g>
<!-- 22&#45;&gt;23 -->
<g id="edge23" class="edge">
<title>22&#45;&gt;23</title>
<path fill="none" stroke="#000000" d="M365.5884,-192.9465C364.3971,-184.6863 363.1063,-175.7374 361.8588,-167.0875"/>
<polygon fill="#000000" stroke="#000000" points="365.3144,-166.5279 360.4226,-157.13 358.3861,-167.5272 365.3144,-166.5279"/>
</g>
<!-- 26 -->
<g id="node27" class="node">
<title>26</title>
<polygon fill="none" stroke="#000000" points="536,-157 425,-157 425,-89 536,-89 536,-157"/>
<text text-anchor="middle" x="480.5" y="-141.8" font-family="Helvetica,sans-Serif" font-size="14.00" fill="#000000">X[0] &lt;= 59.713</text>
<text text-anchor="middle" x="480.5" y="-126.8" font-family="Helvetica,sans-Serif" font-size="14.00" fill="#000000">gini = 0.245</text>
<text text-anchor="middle" x="480.5" y="-111.8" font-family="Helvetica,sans-Serif" font-size="14.00" fill="#000000">samples = 7</text>
<text text-anchor="middle" x="480.5" y="-96.8" font-family="Helvetica,sans-Serif" font-size="14.00" fill="#000000">value = [1, 6]</text>
</g>
<!-- 22&#45;&gt;26 -->
<g id="edge26" class="edge">
<title>22&#45;&gt;26</title>
<path fill="none" stroke="#000000" d="M406.5181,-192.9465C416.2046,-183.7884 426.7864,-173.7838 436.8397,-164.2788"/>
<polygon fill="#000000" stroke="#000000" points="439.539,-166.5434 444.401,-157.13 434.7299,-161.4569 439.539,-166.5434"/>
</g>
<!-- 24 -->
<g id="node25" class="node">
<title>24</title>
<polygon fill="none" stroke="#000000" points="290,-53 191,-53 191,0 290,0 290,-53"/>
<text text-anchor="middle" x="240.5" y="-37.8" font-family="Helvetica,sans-Serif" font-size="14.00" fill="#000000">gini = 0.0</text>
<text text-anchor="middle" x="240.5" y="-22.8" font-family="Helvetica,sans-Serif" font-size="14.00" fill="#000000">samples = 3</text>
<text text-anchor="middle" x="240.5" y="-7.8" font-family="Helvetica,sans-Serif" font-size="14.00" fill="#000000">value = [3, 0]</text>
</g>
<!-- 23&#45;&gt;24 -->
<g id="edge24" class="edge">
<title>23&#45;&gt;24</title>
<path fill="none" stroke="#000000" d="M314.9553,-88.9777C303.7155,-79.546 291.5264,-69.3178 280.3279,-59.9208"/>
<polygon fill="#000000" stroke="#000000" points="282.2866,-56.9954 272.3764,-53.2485 277.787,-62.3576 282.2866,-56.9954"/>
</g>
<!-- 25 -->
<g id="node26" class="node">
<title>25</title>
<polygon fill="none" stroke="#000000" points="407,-53 308,-53 308,0 407,0 407,-53"/>
<text text-anchor="middle" x="357.5" y="-37.8" font-family="Helvetica,sans-Serif" font-size="14.00" fill="#000000">gini = 0.0</text>
<text text-anchor="middle" x="357.5" y="-22.8" font-family="Helvetica,sans-Serif" font-size="14.00" fill="#000000">samples = 1</text>
<text text-anchor="middle" x="357.5" y="-7.8" font-family="Helvetica,sans-Serif" font-size="14.00" fill="#000000">value = [0, 1]</text>
</g>
<!-- 23&#45;&gt;25 -->
<g id="edge25" class="edge">
<title>23&#45;&gt;25</title>
<path fill="none" stroke="#000000" d="M356.2051,-88.9777C356.3759,-80.7364 356.5593,-71.887 356.7328,-63.5153"/>
<polygon fill="#000000" stroke="#000000" points="360.2376,-63.3189 356.9456,-53.2485 353.2391,-63.1738 360.2376,-63.3189"/>
</g>
<!-- 27 -->
<g id="node28" class="node">
<title>27</title>
<polygon fill="none" stroke="#000000" points="528,-53 429,-53 429,0 528,0 528,-53"/>
<text text-anchor="middle" x="478.5" y="-37.8" font-family="Helvetica,sans-Serif" font-size="14.00" fill="#000000">gini = 0.0</text>
<text text-anchor="middle" x="478.5" y="-22.8" font-family="Helvetica,sans-Serif" font-size="14.00" fill="#000000">samples = 6</text>
<text text-anchor="middle" x="478.5" y="-7.8" font-family="Helvetica,sans-Serif" font-size="14.00" fill="#000000">value = [0, 6]</text>
</g>
<!-- 26&#45;&gt;27 -->
<g id="edge27" class="edge">
<title>26&#45;&gt;27</title>
<path fill="none" stroke="#000000" d="M479.7949,-88.9777C479.6241,-80.7364 479.4407,-71.887 479.2672,-63.5153"/>
<polygon fill="#000000" stroke="#000000" points="482.7609,-63.1738 479.0544,-53.2485 475.7624,-63.3189 482.7609,-63.1738"/>
</g>
<!-- 28 -->
<g id="node29" class="node">
<title>28</title>
<polygon fill="none" stroke="#000000" points="645,-53 546,-53 546,0 645,0 645,-53"/>
<text text-anchor="middle" x="595.5" y="-37.8" font-family="Helvetica,sans-Serif" font-size="14.00" fill="#000000">gini = 0.0</text>
<text text-anchor="middle" x="595.5" y="-22.8" font-family="Helvetica,sans-Serif" font-size="14.00" fill="#000000">samples = 1</text>
<text text-anchor="middle" x="595.5" y="-7.8" font-family="Helvetica,sans-Serif" font-size="14.00" fill="#000000">value = [1, 0]</text>
</g>
<!-- 26&#45;&gt;28 -->
<g id="edge28" class="edge">
<title>26&#45;&gt;28</title>
<path fill="none" stroke="#000000" d="M521.0447,-88.9777C532.2845,-79.546 544.4736,-69.3178 555.6721,-59.9208"/>
<polygon fill="#000000" stroke="#000000" points="558.213,-62.3576 563.6236,-53.2485 553.7134,-56.9954 558.213,-62.3576"/>
</g>
<!-- 32 -->
<g id="node33" class="node">
<title>32</title>
<polygon fill="none" stroke="#000000" points="687,-357.5 588,-357.5 588,-304.5 687,-304.5 687,-357.5"/>
<text text-anchor="middle" x="637.5" y="-342.3" font-family="Helvetica,sans-Serif" font-size="14.00" fill="#000000">gini = 0.0</text>
<text text-anchor="middle" x="637.5" y="-327.3" font-family="Helvetica,sans-Serif" font-size="14.00" fill="#000000">samples = 1</text>
<text text-anchor="middle" x="637.5" y="-312.3" font-family="Helvetica,sans-Serif" font-size="14.00" fill="#000000">value = [0, 1]</text>
</g>
<!-- 31&#45;&gt;32 -->
<g id="edge32" class="edge">
<title>31&#45;&gt;32</title>
<path fill="none" stroke="#000000" d="M659.6946,-400.9465C656.2694,-390.1519 652.471,-378.1813 648.9989,-367.2389"/>
<polygon fill="#000000" stroke="#000000" points="652.2827,-366.0152 645.922,-357.5422 645.6105,-368.1324 652.2827,-366.0152"/>
</g>
<!-- 33 -->
<g id="node34" class="node">
<title>33</title>
<polygon fill="none" stroke="#000000" points="816,-365 705,-365 705,-297 816,-297 816,-365"/>
<text text-anchor="middle" x="760.5" y="-349.8" font-family="Helvetica,sans-Serif" font-size="14.00" fill="#000000">X[0] &lt;= 63.692</text>
<text text-anchor="middle" x="760.5" y="-334.8" font-family="Helvetica,sans-Serif" font-size="14.00" fill="#000000">gini = 0.219</text>
<text text-anchor="middle" x="760.5" y="-319.8" font-family="Helvetica,sans-Serif" font-size="14.00" fill="#000000">samples = 8</text>
<text text-anchor="middle" x="760.5" y="-304.8" font-family="Helvetica,sans-Serif" font-size="14.00" fill="#000000">value = [7, 1]</text>
</g>
<!-- 31&#45;&gt;33 -->
<g id="edge33" class="edge">
<title>31&#45;&gt;33</title>
<path fill="none" stroke="#000000" d="M699.9694,-400.9465C707.7393,-391.968 716.2132,-382.1758 724.2936,-372.8385"/>
<polygon fill="#000000" stroke="#000000" points="727.0672,-374.982 730.9644,-365.13 721.774,-370.4014 727.0672,-374.982"/>
</g>
<!-- 34 -->
<g id="node35" class="node">
<title>34</title>
<polygon fill="none" stroke="#000000" points="690,-253.5 591,-253.5 591,-200.5 690,-200.5 690,-253.5"/>
<text text-anchor="middle" x="640.5" y="-238.3" font-family="Helvetica,sans-Serif" font-size="14.00" fill="#000000">gini = 0.0</text>
<text text-anchor="middle" x="640.5" y="-223.3" font-family="Helvetica,sans-Serif" font-size="14.00" fill="#000000">samples = 6</text>
<text text-anchor="middle" x="640.5" y="-208.3" font-family="Helvetica,sans-Serif" font-size="14.00" fill="#000000">value = [6, 0]</text>
</g>
<!-- 33&#45;&gt;34 -->
<g id="edge34" class="edge">
<title>33&#45;&gt;34</title>
<path fill="none" stroke="#000000" d="M721.2075,-296.9465C707.6083,-285.1606 692.3915,-271.9726 678.8676,-260.2519"/>
<polygon fill="#000000" stroke="#000000" points="680.9748,-257.4466 671.1256,-253.5422 676.3902,-262.7364 680.9748,-257.4466"/>
</g>
<!-- 35 -->
<g id="node36" class="node">
<title>35</title>
<polygon fill="none" stroke="#000000" points="819,-261 708,-261 708,-193 819,-193 819,-261"/>
<text text-anchor="middle" x="763.5" y="-245.8" font-family="Helvetica,sans-Serif" font-size="14.00" fill="#000000">X[0] &lt;= 77.182</text>
<text text-anchor="middle" x="763.5" y="-230.8" font-family="Helvetica,sans-Serif" font-size="14.00" fill="#000000">gini = 0.5</text>
<text text-anchor="middle" x="763.5" y="-215.8" font-family="Helvetica,sans-Serif" font-size="14.00" fill="#000000">samples = 2</text>
<text text-anchor="middle" x="763.5" y="-200.8" font-family="Helvetica,sans-Serif" font-size="14.00" fill="#000000">value = [1, 1]</text>
</g>
<!-- 33&#45;&gt;35 -->
<g id="edge35" class="edge">
<title>33&#45;&gt;35</title>
<path fill="none" stroke="#000000" d="M761.4823,-296.9465C761.718,-288.776 761.9731,-279.9318 762.2201,-271.3697"/>
<polygon fill="#000000" stroke="#000000" points="765.7256,-271.2268 762.5155,-261.13 758.7285,-271.0249 765.7256,-271.2268"/>
</g>
<!-- 36 -->
<g id="node37" class="node">
<title>36</title>
<polygon fill="none" stroke="#000000" points="754,-149.5 655,-149.5 655,-96.5 754,-96.5 754,-149.5"/>
<text text-anchor="middle" x="704.5" y="-134.3" font-family="Helvetica,sans-Serif" font-size="14.00" fill="#000000">gini = 0.0</text>
<text text-anchor="middle" x="704.5" y="-119.3" font-family="Helvetica,sans-Serif" font-size="14.00" fill="#000000">samples = 1</text>
<text text-anchor="middle" x="704.5" y="-104.3" font-family="Helvetica,sans-Serif" font-size="14.00" fill="#000000">value = [0, 1]</text>
</g>
<!-- 35&#45;&gt;36 -->
<g id="edge36" class="edge">
<title>35&#45;&gt;36</title>
<path fill="none" stroke="#000000" d="M744.1812,-192.9465C737.9324,-181.9316 730.9888,-169.6922 724.6793,-158.5703"/>
<polygon fill="#000000" stroke="#000000" points="727.5362,-156.513 719.5576,-149.5422 721.4477,-159.967 727.5362,-156.513"/>
</g>
<!-- 37 -->
<g id="node38" class="node">
<title>37</title>
<polygon fill="none" stroke="#000000" points="871,-149.5 772,-149.5 772,-96.5 871,-96.5 871,-149.5"/>
<text text-anchor="middle" x="821.5" y="-134.3" font-family="Helvetica,sans-Serif" font-size="14.00" fill="#000000">gini = 0.0</text>
<text text-anchor="middle" x="821.5" y="-119.3" font-family="Helvetica,sans-Serif" font-size="14.00" fill="#000000">samples = 1</text>
<text text-anchor="middle" x="821.5" y="-104.3" font-family="Helvetica,sans-Serif" font-size="14.00" fill="#000000">value = [1, 0]</text>
</g>
<!-- 35&#45;&gt;37 -->
<g id="edge37" class="edge">
<title>35&#45;&gt;37</title>
<path fill="none" stroke="#000000" d="M782.4914,-192.9465C788.6343,-181.9316 795.4601,-169.6922 801.6627,-158.5703"/>
<polygon fill="#000000" stroke="#000000" points="804.8837,-159.9806 806.6976,-149.5422 798.7701,-156.5711 804.8837,-159.9806"/>
</g>
<!-- 39 -->
<g id="node40" class="node">
<title>39</title>
<polygon fill="none" stroke="#000000" points="945,-469 834,-469 834,-401 945,-401 945,-469"/>
<text text-anchor="middle" x="889.5" y="-453.8" font-family="Helvetica,sans-Serif" font-size="14.00" fill="#000000">X[1] &lt;= 10.496</text>
<text text-anchor="middle" x="889.5" y="-438.8" font-family="Helvetica,sans-Serif" font-size="14.00" fill="#000000">gini = 0.133</text>
<text text-anchor="middle" x="889.5" y="-423.8" font-family="Helvetica,sans-Serif" font-size="14.00" fill="#000000">samples = 14</text>
<text text-anchor="middle" x="889.5" y="-408.8" font-family="Helvetica,sans-Serif" font-size="14.00" fill="#000000">value = [1, 13]</text>
</g>
<!-- 38&#45;&gt;39 -->
<g id="edge39" class="edge">
<title>38&#45;&gt;39</title>
<path fill="none" stroke="#000000" d="M889.5,-504.9465C889.5,-496.776 889.5,-487.9318 889.5,-479.3697"/>
<polygon fill="#000000" stroke="#000000" points="893.0001,-479.13 889.5,-469.13 886.0001,-479.13 893.0001,-479.13"/>
</g>
<!-- 44 -->
<g id="node45" class="node">
<title>44</title>
<polygon fill="none" stroke="#000000" points="1062,-461.5 963,-461.5 963,-408.5 1062,-408.5 1062,-461.5"/>
<text text-anchor="middle" x="1012.5" y="-446.3" font-family="Helvetica,sans-Serif" font-size="14.00" fill="#000000">gini = 0.0</text>
<text text-anchor="middle" x="1012.5" y="-431.3" font-family="Helvetica,sans-Serif" font-size="14.00" fill="#000000">samples = 2</text>
<text text-anchor="middle" x="1012.5" y="-416.3" font-family="Helvetica,sans-Serif" font-size="14.00" fill="#000000">value = [2, 0]</text>
</g>
<!-- 38&#45;&gt;44 -->
<g id="edge44" class="edge">
<title>38&#45;&gt;44</title>
<path fill="none" stroke="#000000" d="M929.7748,-504.9465C943.7139,-493.1606 959.3112,-479.9726 973.1732,-468.2519"/>
<polygon fill="#000000" stroke="#000000" points="975.7324,-470.6715 981.1088,-461.5422 971.2127,-465.3262 975.7324,-470.6715"/>
</g>
<!-- 40 -->
<g id="node41" class="node">
<title>40</title>
<polygon fill="none" stroke="#000000" points="945,-365 834,-365 834,-297 945,-297 945,-365"/>
<text text-anchor="middle" x="889.5" y="-349.8" font-family="Helvetica,sans-Serif" font-size="14.00" fill="#000000">X[0] &lt;= 38.804</text>
<text text-anchor="middle" x="889.5" y="-334.8" font-family="Helvetica,sans-Serif" font-size="14.00" fill="#000000">gini = 0.444</text>
<text text-anchor="middle" x="889.5" y="-319.8" font-family="Helvetica,sans-Serif" font-size="14.00" fill="#000000">samples = 3</text>
<text text-anchor="middle" x="889.5" y="-304.8" font-family="Helvetica,sans-Serif" font-size="14.00" fill="#000000">value = [1, 2]</text>
</g>
<!-- 39&#45;&gt;40 -->
<g id="edge40" class="edge">
<title>39&#45;&gt;40</title>
<path fill="none" stroke="#000000" d="M889.5,-400.9465C889.5,-392.776 889.5,-383.9318 889.5,-375.3697"/>
<polygon fill="#000000" stroke="#000000" points="893.0001,-375.13 889.5,-365.13 886.0001,-375.13 893.0001,-375.13"/>
</g>
<!-- 43 -->
<g id="node44" class="node">
<title>43</title>
<polygon fill="none" stroke="#000000" points="1070,-357.5 963,-357.5 963,-304.5 1070,-304.5 1070,-357.5"/>
<text text-anchor="middle" x="1016.5" y="-342.3" font-family="Helvetica,sans-Serif" font-size="14.00" fill="#000000">gini = 0.0</text>
<text text-anchor="middle" x="1016.5" y="-327.3" font-family="Helvetica,sans-Serif" font-size="14.00" fill="#000000">samples = 11</text>
<text text-anchor="middle" x="1016.5" y="-312.3" font-family="Helvetica,sans-Serif" font-size="14.00" fill="#000000">value = [0, 11]</text>
</g>
<!-- 39&#45;&gt;43 -->
<g id="edge43" class="edge">
<title>39&#45;&gt;43</title>
<path fill="none" stroke="#000000" d="M931.0845,-400.9465C945.6115,-389.0504 961.8827,-375.726 976.2951,-363.9237"/>
<polygon fill="#000000" stroke="#000000" points="978.5686,-366.5858 984.0879,-357.5422 974.1335,-361.17 978.5686,-366.5858"/>
</g>
<!-- 41 -->
<g id="node42" class="node">
<title>41</title>
<polygon fill="none" stroke="#000000" points="937,-253.5 838,-253.5 838,-200.5 937,-200.5 937,-253.5"/>
<text text-anchor="middle" x="887.5" y="-238.3" font-family="Helvetica,sans-Serif" font-size="14.00" fill="#000000">gini = 0.0</text>
<text text-anchor="middle" x="887.5" y="-223.3" font-family="Helvetica,sans-Serif" font-size="14.00" fill="#000000">samples = 2</text>
<text text-anchor="middle" x="887.5" y="-208.3" font-family="Helvetica,sans-Serif" font-size="14.00" fill="#000000">value = [0, 2]</text>
</g>
<!-- 40&#45;&gt;41 -->
<g id="edge41" class="edge">
<title>40&#45;&gt;41</title>
<path fill="none" stroke="#000000" d="M888.8451,-296.9465C888.6397,-286.2621 888.412,-274.4254 888.2034,-263.5742"/>
<polygon fill="#000000" stroke="#000000" points="891.7021,-263.473 888.0104,-253.5422 884.7034,-263.6076 891.7021,-263.473"/>
</g>
<!-- 42 -->
<g id="node43" class="node">
<title>42</title>
<polygon fill="none" stroke="#000000" points="1054,-253.5 955,-253.5 955,-200.5 1054,-200.5 1054,-253.5"/>
<text text-anchor="middle" x="1004.5" y="-238.3" font-family="Helvetica,sans-Serif" font-size="14.00" fill="#000000">gini = 0.0</text>
<text text-anchor="middle" x="1004.5" y="-223.3" font-family="Helvetica,sans-Serif" font-size="14.00" fill="#000000">samples = 1</text>
<text text-anchor="middle" x="1004.5" y="-208.3" font-family="Helvetica,sans-Serif" font-size="14.00" fill="#000000">value = [1, 0]</text>
</g>
<!-- 40&#45;&gt;42 -->
<g id="edge42" class="edge">
<title>40&#45;&gt;42</title>
<path fill="none" stroke="#000000" d="M927.1553,-296.9465C940.1878,-285.1606 954.7706,-271.9726 967.7311,-260.2519"/>
<polygon fill="#000000" stroke="#000000" points="970.0812,-262.8456 975.1505,-253.5422 965.386,-257.6537 970.0812,-262.8456"/>
</g>
</g>
</svg>
